<?xml version="1.0" standalone="no"?>
<!DOCTYPE svg PUBLIC "-//W3C//DTD SVG 20010904//EN"
 "http://www.w3.org/TR/2001/REC-SVG-20010904/DTD/svg10.dtd">
<svg version="1.0" xmlns="http://www.w3.org/2000/svg"
 width="700.000000pt" height="700.000000pt" viewBox="0 0 700.000000 700.000000"
 preserveAspectRatio="xMidYMid meet">
<metadata>
Created by potrace 1.14, written by Peter Selinger 2001-2017
</metadata>
<g transform="translate(0.000000,700.000000) scale(0.100000,-0.100000)"
fill="#000000" stroke="none">
<path d="M815 6410 c-124 -27 -220 -138 -229 -263 -5 -59 21 -151 56 -197 26
-36 99 -88 141 -102 17 -6 123 -12 235 -13 l204 -3 63 -31 c66 -33 114 -81
139 -143 14 -31 19 -61 31 -151 4 -36 48 -214 115 -472 16 -60 65 -254 110
-430 45 -176 95 -372 111 -435 114 -441 170 -663 166 -666 -1 -2 -25 -6 -52
-8 -369 -39 -684 -328 -762 -701 -14 -66 -19 -227 -9 -290 54 -352 304 -634
643 -725 47 -13 123 -24 193 -27 63 -3 116 -6 118 -8 1 -1 -7 -37 -19 -81 -22
-81 -30 -262 -16 -349 52 -331 299 -610 622 -703 363 -105 768 44 970 358 105
162 140 285 140 490 0 121 -7 174 -31 241 -7 23 -14 43 -14 45 0 2 155 4 345
4 326 0 345 -1 337 -17 -10 -19 -30 -104 -38 -163 -16 -116 -3 -277 31 -381
60 -183 188 -356 340 -458 356 -240 827 -193 1120 112 165 171 249 376 248
607 0 96 -17 207 -42 272 -9 25 -9 25 57 30 112 8 200 67 248 165 73 148 -1
335 -156 394 l-55 22 -2100 1 -2100 1 -57 28 c-60 30 -114 84 -145 146 -24 49
-24 181 1 232 29 62 84 116 144 146 l57 28 1595 1 c1673 1 1650 1 1790 46 228
73 429 254 526 474 21 47 59 169 69 224 2 8 4 15 5 15 1 0 3 7 5 15 4 19 220
872 286 1130 28 107 52 202 54 210 2 8 17 71 35 140 18 69 34 133 36 143 2 9
6 25 8 35 2 9 13 51 23 92 24 92 21 155 -10 223 -31 67 -78 113 -147 145 l-55
25 -2110 0 -2110 0 -45 91 c-123 248 -324 407 -599 473 -70 17 -456 26 -516
13z m4931 -1177 c-4 -17 -213 -859 -221 -893 -2 -8 -29 -114 -60 -235 -30
-121 -58 -231 -61 -245 -16 -74 -47 -177 -64 -210 -10 -21 -39 -55 -64 -77
-88 -78 6 -73 -1432 -73 l-1283 0 -10 38 c-21 82 -72 288 -76 307 -3 11 -75
299 -161 640 -85 341 -158 631 -160 645 -3 14 -11 46 -19 73 l-14 47 1815 0
c1724 0 1815 -1 1810 -17z m-2701 -3516 c177 -90 217 -324 79 -460 -67 -66
-106 -82 -209 -82 -80 0 -95 3 -136 27 -114 67 -173 192 -147 313 11 48 42
111 71 143 28 30 99 72 140 83 57 14 149 4 202 -24z m2325 6 c59 -26 122 -91
147 -150 11 -28 21 -76 22 -113 2 -58 -2 -74 -31 -130 -86 -167 -286 -214
-434 -101 -180 137 -139 418 74 502 60 23 159 20 222 -8z"/>
</g>
</svg>
